<svg width="896" height="517" viewBox="0 0 896 517" fill="none" xmlns="http://www.w3.org/2000/svg">
<rect width="895.843" height="516.11" rx="16.3326" fill="black" fill-opacity="0.2"/>
<g clip-path="url(#clip0_30_4)">
<path d="M450.372 216.407C428.081 216.407 409.948 234.541 409.948 256.83C409.948 279.119 428.081 297.253 450.372 297.253C472.662 297.253 490.795 279.119 490.795 256.83C490.795 234.541 472.662 216.407 450.372 216.407ZM450.372 293.885C429.939 293.885 413.317 277.262 413.317 256.83C413.317 236.398 429.939 219.776 450.372 219.776C470.804 219.776 487.426 236.398 487.426 256.83C487.426 277.262 470.804 293.885 450.372 293.885Z" fill="white"/>
<path d="M466.442 255.414L442.862 240.255C442.345 239.918 441.678 239.9 441.145 240.193C440.602 240.489 440.266 241.055 440.266 241.672V271.989C440.266 272.606 440.602 273.172 441.145 273.468C441.395 273.604 441.674 273.673 441.951 273.673C442.266 273.673 442.585 273.584 442.862 273.405L466.442 258.246C466.922 257.937 467.215 257.403 467.215 256.83C467.215 256.258 466.922 255.723 466.442 255.414ZM443.635 268.903V244.757L462.415 256.83L443.635 268.903Z" fill="white"/>
</g>
<defs>
<clipPath id="clip0_30_4">
<rect width="80.8464" height="80.8464" fill="white" transform="translate(409.948 216.407)"/>
</clipPath>
</defs>
</svg>
